<?xml version="1.0" standalone="no"?>
<!DOCTYPE svg PUBLIC "-//W3C//DTD SVG 20010904//EN"
 "http://www.w3.org/TR/2001/REC-SVG-20010904/DTD/svg10.dtd">
<svg version="1.0" xmlns="http://www.w3.org/2000/svg"
 width="512.000000pt" height="512.000000pt" viewBox="0 0 512.000000 512.000000"
 preserveAspectRatio="xMidYMid meet">
<metadata>
Created by potrace 1.14, written by Peter Selinger 2001-2017
</metadata>
<g transform="translate(0.000000,512.000000) scale(0.100000,-0.100000)"
fill="#000000" stroke="none">
<path d="M2030 5114 c-317 -58 -539 -221 -666 -487 -74 -157 -77 -177 -81
-608 l-4 -386 -207 -5 c-224 -6 -281 -17 -382 -76 -68 -40 -165 -143 -200
-211 -63 -127 -60 -31 -60 -1653 l0 -1478 -179 0 c-177 0 -180 0 -209 -25 -39
-32 -48 -72 -28 -119 30 -71 -181 -66 2546 -66 2727 0 2516 -5 2546 66 20 47
11 87 -28 119 -29 25 -32 25 -209 25 l-179 0 0 1478 c0 1630 4 1530 -63 1656
-37 70 -131 169 -197 208 -101 59 -158 70 -382 76 l-207 5 -4 386 c-4 431 -7
451 -81 608 -90 189 -228 324 -419 413 -126 58 -210 75 -357 73 -141 -1 -238
-22 -352 -75 l-68 -31 -68 31 c-38 18 -103 41 -146 52 -76 19 -264 34 -316 24z
m270 -230 c30 -9 59 -18 63 -21 4 -3 -7 -23 -26 -46 -54 -67 -107 -154 -138
-229 -56 -135 -61 -180 -66 -585 l-5 -373 -320 0 -320 0 5 373 c4 412 5 418
73 557 54 110 170 223 284 278 47 22 110 45 140 51 30 6 64 13 75 15 37 9 180
-4 235 -20z m837 5 c26 -6 86 -29 133 -52 114 -53 229 -166 284 -277 68 -139
69 -145 73 -557 l5 -373 -320 0 -320 0 -5 373 c-5 405 -10 450 -66 585 -31 76
-84 162 -139 229 l-34 43 27 10 c26 10 87 25 135 34 38 7 172 -2 227 -15z
m-523 -201 c26 -29 64 -87 86 -129 66 -127 70 -157 70 -566 l0 -363 -210 0
-210 0 0 363 c0 409 4 439 70 566 38 72 122 181 140 181 5 0 29 -24 54 -52z
m-1268 -1340 c-62 -113 -66 -146 -66 -537 0 -326 -1 -352 -17 -357 -66 -19
-107 -73 -96 -126 7 -38 46 -77 83 -84 l30 -6 0 -534 0 -534 -320 0 -321 0 3
998 3 997 26 55 c29 61 83 121 132 147 72 37 109 42 344 42 l233 1 -34 -62z
m786 -220 c3 -302 5 -312 55 -339 29 -16 77 -16 106 0 50 27 52 37 55 339 l3
282 633 0 633 0 7 -282 c8 -313 9 -318 73 -344 47 -20 97 -4 124 40 17 29 19
53 19 309 l0 279 198 -4 c188 -3 200 -4 253 -29 69 -33 124 -88 158 -159 l26
-55 3 -352 4 -353 -1491 0 -1491 0 0 353 0 352 26 55 c28 60 82 123 129 148
66 34 110 41 292 41 l182 1 3 -282z m2348 -1898 l0 -1010 -1490 0 -1490 0 0
370 0 370 1125 0 1125 0 32 29 c29 26 33 35 32 76 -1 36 -7 52 -28 73 l-26 27
-1133 5 -1132 5 -3 533 -2 532 1495 0 1495 0 0 -1010z m-3200 -640 l0 -370
-320 0 -320 0 0 370 0 370 320 0 320 0 0 -370z"/>
<path d="M854 2453 c-38 -7 -77 -58 -77 -101 0 -80 52 -117 154 -110 54 4 66
8 90 36 35 39 38 91 9 133 -29 40 -100 57 -176 42z"/>
<path d="M1999 2060 c-116 -21 -169 -87 -169 -210 0 -74 25 -129 72 -158 18
-11 76 -32 128 -47 112 -31 130 -45 130 -95 0 -82 -67 -105 -223 -76 -48 9
-92 14 -97 11 -13 -8 -30 -74 -23 -91 10 -26 84 -39 218 -39 120 0 133 2 175
25 63 35 93 97 92 191 0 118 -30 149 -187 194 -115 33 -139 50 -143 102 -4 60
29 83 117 82 36 0 88 -4 114 -8 42 -7 50 -6 62 13 8 11 15 35 15 53 0 29 -4
33 -37 42 -56 15 -192 21 -244 11z"/>
<path d="M2663 2050 c-12 -5 -29 -19 -37 -32 -14 -22 -212 -586 -216 -618 -5
-37 0 -40 65 -40 36 0 65 1 65 3 0 1 13 40 29 87 l27 85 120 3 119 3 30 -88
30 -88 63 -3 c49 -2 64 0 68 13 6 16 -175 571 -207 636 -10 21 -28 39 -41 43
-32 8 -89 6 -115 -4z m100 -257 c21 -71 37 -131 37 -135 0 -5 -36 -8 -80 -8
-66 0 -80 3 -80 16 0 23 73 254 80 254 3 0 23 -57 43 -127z"/>
<path d="M3173 2053 c-18 -7 -18 -631 0 -654 26 -34 54 -39 235 -39 155 0 181
2 186 16 9 24 7 63 -4 85 -10 17 -22 19 -143 19 -90 0 -137 4 -145 12 -9 9
-12 86 -12 284 0 302 4 285 -68 283 -20 0 -43 -3 -49 -6z"/>
<path d="M3745 2026 c-32 -32 -37 -87 -33 -366 2 -160 7 -242 15 -256 22 -39
58 -45 248 -42 l180 3 3 49 c2 32 -1 52 -10 57 -7 5 -74 9 -149 9 -158 0 -149
-6 -149 106 l0 73 133 3 132 3 3 49 c2 32 -1 52 -10 57 -7 5 -68 9 -135 9
l-123 0 0 70 c0 58 3 71 19 80 11 5 76 10 145 10 l126 0 0 55 0 55 -185 0
c-182 0 -186 0 -210 -24z"/>
<path d="M4034 1152 c-64 -51 -57 -145 13 -181 12 -6 49 -11 83 -11 74 0 113
22 130 74 13 41 -5 94 -41 120 -33 23 -156 22 -185 -2z"/>
<path d="M1742 610 c-16 -16 -32 -40 -34 -53 -7 -37 14 -88 45 -111 27 -20 42
-21 335 -24 169 -2 327 0 351 3 111 17 140 155 44 204 -15 7 -132 11 -367 11
l-344 0 -30 -30z"/>
<path d="M2751 614 c-57 -48 -49 -141 16 -175 34 -18 133 -18 167 1 34 17 56
58 56 101 0 22 -10 41 -34 65 -32 32 -38 34 -104 34 -61 0 -75 -3 -101 -26z"/>
</g>
</svg>
